<svg xmlns="http://www.w3.org/2000/svg" version="1.1" xmlns:xlink="http://www.w3.org/1999/xlink" xmlns:svgjs="http://svgjs.com/svgjs" width="1440" height="560" preserveAspectRatio="none" viewBox="0 0 1440 560"><g mask="url(&quot;#SvgjsMask1038&quot;)" fill="none"><circle r="5.825" cx="1089.645" cy="92.885" filter="url(#SvgjsFilter1039)" fill="rgba(170, 183, 235, 0.3)"></circle><circle r="6.845" cx="1094.645" cy="174.795" filter="url(#SvgjsFilter1039)" fill="rgba(170, 183, 235, 0.3)"></circle><circle r="8.13" cx="1176.42" cy="252.35999999999999" filter="url(#SvgjsFilter1039)" fill="rgba(170, 183, 235, 0.3)"></circle><circle r="8.015" cx="1303.365" cy="552.245" filter="url(#SvgjsFilter1039)" fill="rgba(170, 183, 235, 0.3)"></circle><circle r="8.185" cx="1224.565" cy="173.785" filter="url(#SvgjsFilter1039)" fill="rgba(170, 183, 235, 0.3)"></circle><circle r="7.095" cx="1333.955" cy="64.255" filter="url(#SvgjsFilter1039)" fill="rgba(170, 183, 235, 0.3)"></circle><circle r="9.29" cx="269.76000000000005" cy="374.02000000000004" filter="url(#SvgjsFilter1039)" fill="rgba(170, 183, 235, 0.3)"></circle><circle r="4.89" cx="193.89" cy="177.29999999999998" filter="url(#SvgjsFilter1039)" fill="rgba(170, 183, 235, 0.3)"></circle><circle r="6.965" cx="224.465" cy="213.965" filter="url(#SvgjsFilter1039)" fill="rgba(170, 183, 235, 0.3)"></circle><circle r="6.115" cx="1067.325" cy="535.9350000000001" filter="url(#SvgjsFilter1039)" fill="rgba(170, 183, 235, 0.3)"></circle><circle r="7.785" cx="749.405" cy="512.955" filter="url(#SvgjsFilter1039)" fill="rgba(170, 183, 235, 0.3)"></circle><circle r="5.675" cx="1084.405" cy="529.865" filter="url(#SvgjsFilter1039)" fill="rgba(170, 183, 235, 0.3)"></circle><circle r="7.19" cx="382.35" cy="299.65" filter="url(#SvgjsFilter1039)" fill="rgba(170, 183, 235, 0.3)"></circle><circle r="8.65" cx="17.72" cy="92.47" filter="url(#SvgjsFilter1039)" fill="rgba(170, 183, 235, 0.3)"></circle><circle r="6.67" cx="1027.85" cy="361.99" filter="url(#SvgjsFilter1039)" fill="rgba(170, 183, 235, 0.3)"></circle><circle r="9.24" cx="1241.82" cy="369.74" filter="url(#SvgjsFilter1039)" fill="rgba(170, 183, 235, 0.3)"></circle><circle r="5.85" cx="161.53" cy="191.75" filter="url(#SvgjsFilter1039)" fill="rgba(170, 183, 235, 0.3)"></circle><circle r="6.86" cx="1321.6799999999998" cy="103.52" filter="url(#SvgjsFilter1039)" fill="rgba(170, 183, 235, 0.3)"></circle><circle r="5.465" cx="576.135" cy="174.975" filter="url(#SvgjsFilter1039)" fill="rgba(170, 183, 235, 0.3)"></circle><circle r="6.62" cx="1021.3100000000001" cy="317.62" filter="url(#SvgjsFilter1039)" fill="rgba(170, 183, 235, 0.3)"></circle><path d="M696.5 405.5L679.7 394.4 691.5 387.9C692.8 387.3 693.6 385.5 693 383.5 691.8 382.2 689.9 381.4 688.6 382L672.9 390.3 657.3 379.9 689.5 363.5C691.5 362.3 692.2 360.4 691 359.1 690.4 357.1 688.5 356.4 686.5 357.6L651.1 375.8 636.8 366.8 638.6 327.8 651.7 320.7 687.2 344.2C687.8 344.2 688.5 344.2 689.1 344.2 689.7 344.3 691 343.7 691.7 343.1 693.1 341.2 692.5 339.3 690.6 338.5L658.3 317.2 674.7 309 691.5 319.4C691.5 320 692.1 320 692.8 320.1 694.1 320.1 695.4 319.5 696.1 318.3 696.8 317 696.2 315.1 695 313.8L681.3 305.4 701.6 294.9C703 294.3 703.7 292.4 703.1 290.4 701.9 289.1 700 288.4 698.7 288.9L679.7 299 680.3 285.5C680.4 283.6 678.5 282.2 677.3 282.2 675.3 282.1 673.4 283.3 673.3 285.2L672.5 302.5 656.1 310.7 657.7 274.9C657.8 272.9 656.6 271.6 654.7 271.5 652.8 271.4 651.4 272.6 651.3 274.6L649.5 314.2 635.7 321.9 602.7 300.5 603.4 285.8 639.5 267C641.5 266.4 642.2 263.9 641 262.6 640.5 260.6 638.5 260.5 636.6 261.1L603.8 278.1 604.6 259.6 621 251.4C622.3 250.8 623.1 248.3 622.5 247S619.4 244.9 617.5 245.4L605 251.9 606 229.5C606.1 227.6 604.3 226.2 602.3 226.2 601.1 226.1 599.1 227.3 599 229.2L598 251.6 585.5 243.9C584.2 243.2 582.3 243.2 581 245 580.3 246.3 580.8 248.9 582 249.5L597.6 259.2 596.7 277.8 565.6 257.8C563.7 257 561.8 256.9 560.5 258.8 559.8 260 560.3 262.6 561.5 263.3L596.4 285.5 595.7 300.2 560.9 318.4 547.8 309.5 549.7 269.8C549.8 267.9 548.6 266.6 546.6 266.5 544.7 266.4 542.7 267.6 542.7 269.5L541 305.3 525.4 295.6 526.2 278.3C526.3 276.4 525.1 275.1 523.2 275 521.3 274.9 519.9 276.1 519.8 278L519.2 291.5 501.2 279.7C499.9 279 497.3 279.6 496.6 280.8 495.9 282.7 495.8 284.6 497.7 285.3L516.4 297.7 502.6 304.8C501.2 306 500.5 307.9 501.1 309.2 501.7 310.5 502.9 311.2 504.2 311.3 504.2 311.3 504.8 311.3 505.5 310.7L523.2 301.9 538.8 311.6 504.6 329.9C502.7 330.4 501.9 332.3 503.1 334.3 503.7 335 504.3 335.6 505.6 335.7 506.3 335.7 506.9 335.7 507.5 335.8L545 315.7 557.4 324 555.6 363 540.5 370.6 506.9 349.2C505 347.8 503.1 348.4 502.4 350.3 501 351.5 501.6 353.4 503.4 354.8L533.9 374.2 517.5 383 502.6 373.3C501.3 372.6 499.4 373.2 498 374.4 497.3 376.3 497.2 378.2 499.1 378.9L510.3 386.5 492.6 395.9C490.6 396.5 490.5 398.4 491.1 400.4 491.7 401 492.9 401.7 494.2 401.8 494.2 401.8 494.8 401.8 495.5 401.8L514.5 391.8 513.8 407.8C513.7 409.1 514.9 411.1 516.8 411.2 518.7 411.3 520.1 409.4 520.2 408.1L521.1 388.3 537.5 379.5 535.7 418.5C535.6 420.4 537.5 421.7 539.4 421.8S542.7 420.7 542.7 418.8L544.7 375.9 558.5 368.9 591.5 390.3 590.7 406.9 554 425.7C552.6 426.9 551.9 428.8 552.4 430.8 553 431.4 554.3 432.1 555.6 432.2 556.2 432.2 556.8 432.3 557.5 431.6L590.3 414.6 589.5 433.1 573.1 442C571.7 442.6 571 444.4 571.6 446.4 572.8 447.7 574.7 448.5 576 447.9L589.1 440.8 588.2 461.3C588.1 462.5 589.9 464.6 591.2 464.6 593.1 464.7 595.1 462.9 595.2 461.6L596.2 441.1 607.9 449.4C608.6 449.4 609.2 449.4 609.9 449.5 611.1 449.5 612.5 448.9 613.1 448.3 613.8 446.4 613.3 444.5 612.1 443.2L596.5 433.5 597.4 414.9 628.5 435C630.3 436.3 632.3 435.8 633 434.5 634.4 432.7 633.8 430.7 632.6 429.4L597.7 407.3 598.5 390.6 633.3 372.4 646.4 380.7 644.4 423.5C644.3 425.4 645.5 426.8 647.4 426.9 649.4 427 650.7 425.7 650.8 423.8L652.6 384.8 668.1 395.2 667.2 415C667.2 416.3 669 418.3 670.9 418.4 672.8 418.4 674.2 416.6 674.2 415.3L675 399.3 693 411.1C693.7 411.1 693.7 411.1 694.3 411.1 695.6 411.2 696.9 410.6 697.6 410 698.3 408.1 697.7 406.2 696.5 405.5ZM598.9 383L594.9 384.7 591.8 382.6 565.1 365.4 562 363.3 562.2 359.5 563.6 328.1 563.8 324.3 567.1 322.5 595.3 307.8 598.6 306.1 602.4 308.2 628.5 325.4 632.2 327.5 632 331.3 630.6 362.7 630.4 366.5 626.5 368.2 598.9 383Z" fill="rgba(170, 183, 235, 0.3)"></path><path d="M935.9 314.4L920.8 314.2 925.7 305.3C926.3 304.4 926 302.9 924.9 301.9 923.6 301.6 922.1 301.9 921.5 302.8L914.8 314.3 900.8 314 914.6 290.7C915.4 289.1 915.1 287.6 913.8 287.3 912.6 286.3 911.2 286.6 910.4 288.1L895.2 313.9 882.5 313.9 868 288.5 873.5 278.7 905.4 279.3C905.8 279.1 906.2 278.9 906.6 278.6 907.1 278.4 907.7 277.5 907.8 276.8 908 275.1 906.8 274.1 905.3 274.4L876.3 273.8 883.4 262.1 898.2 261.9C898.4 262.3 898.9 262.1 899.3 261.8 900.1 261.4 900.7 260.5 900.6 259.4 900.6 258.3 899.5 257.3 898.1 256.9L886.1 257.2 894.8 242.3C895.4 241.4 895.1 239.9 893.9 238.9 892.6 238.5 891.1 238.8 890.5 239.7L882.5 253.7 877.5 245C876.8 243.7 875.1 243.6 874.2 244.1 873 244.8 872.2 246.3 872.9 247.6L879.3 258.8 872.2 270.6 858.9 247.3C858.2 246 856.9 245.6 855.7 246.4 854.4 247.1 854 248.4 854.8 249.6L869.5 275.5 863.8 285.9 834.4 285.6 828.9 276 844.2 249.6C845.2 248.4 844.7 246.5 843.4 246.2 842.3 245.2 841 245.9 840 247L826 271 819.1 258.9 826.2 247.1C826.8 246.2 826.3 244.3 825.4 243.7S822.6 243.6 821.6 244.8L816.3 253.9 808 239.3C807.3 238 805.5 237.9 804.3 238.6 803.4 239.1 802.7 240.6 803.4 241.9L811.7 256.5 800.7 256.7C799.7 256.7 798.4 257.4 798.3 259.2 798.4 260.2 799.7 261.7 800.8 261.6L814.6 261.5 821.4 273.6 793.7 273.4C792.2 273.7 791 274.4 790.8 276.1 790.9 277.2 792.3 278.6 793.3 278.6L824.3 278.6 829.8 288.2 815 313.7 803.2 313.3 788.4 287.4C787.7 286.2 786.4 285.8 785.2 286.5 783.9 287.2 783.1 288.8 783.9 290L797.2 313.4 783.4 313.5 777 302.2C776.3 301 775 300.6 773.7 301.3 772.5 302.1 772.1 303.4 772.8 304.6L777.8 313.4 761.7 313.2C760.6 313.2 759.2 314.6 759.2 315.7 759.5 317.2 760.3 318.4 761.7 318.1L778.5 318.5 772.6 328.5C772.3 329.8 772.6 331.3 773.5 331.9 774.3 332.5 775.4 332.4 776.3 331.9 776.3 331.9 776.7 331.7 776.8 331.1L784.5 318.4 798.3 318.3 784 343.6C783 344.7 783.3 346.2 784.8 347 785.5 347.1 786.1 347.3 787 346.8 787.4 346.6 787.8 346.4 788.2 346.1L803.9 318.4 815.1 318.7 829.6 344.1 823.1 355 793.2 354.9C791.5 354.8 790.5 355.9 790.8 357.4 790.4 358.7 791.5 359.7 793.2 359.8L820.3 359.9 813.5 372.1 800.1 371.9C799.1 372 798.1 373.1 797.7 374.4 798 375.9 798.7 377.2 800.2 376.9L810.3 377.2 802.9 390.3C801.8 391.4 802.6 392.6 803.7 393.7 804.3 393.8 805.4 393.8 806.2 393.3 806.2 393.3 806.7 393.1 807.1 392.8L815.1 378.8 821.1 389.3C821.6 390.1 823.1 390.9 824.4 390.2 825.6 389.5 825.7 387.7 825.2 386.9L817.9 374 824.7 361.8 839.2 387.2C840 388.5 841.7 388.6 842.9 387.9S844.5 385.8 843.8 384.6L827.9 356.7 833.8 346.7 863.3 347 869.5 357.8 853.7 384.5C853.4 385.8 853.6 387.3 854.8 388.3 855.4 388.5 856.5 388.4 857.3 387.9 857.8 387.7 858.2 387.5 858.4 386.8L872.3 362.8 879.2 374.9 872.3 387.1C871.7 388 872 389.5 873.2 390.5 874.5 390.9 876 390.6 876.6 389.7L882.1 379.9 889.7 393.3C890.1 394.1 892.1 394.6 892.9 394.2 894.2 393.5 894.7 391.5 894.2 390.7L886.6 377.3 897.4 377.8C897.8 377.6 898.3 377.3 898.7 377.1 899.5 376.6 900.1 375.7 900.3 375.1 900 373.6 898.9 372.6 897.5 372.2L883.8 372.3 876.9 360.2 904.6 360.4C906.4 360.6 907.4 359.4 907.3 358.3 907.4 356.6 906.3 355.6 905 355.3L874 355.2 867.9 344.4 882.6 318.8 894.2 318.9 910.1 346.8C910.8 348.1 912.2 348.4 913.4 347.7 914.7 347 915 345.7 914.3 344.4L899.8 319 913.8 319.3 921.2 332.2C921.6 333.1 923.6 333.6 924.9 332.9 926.1 332.2 926.2 330.4 925.8 329.6L919.8 319.2 935.9 319.4C936.4 319.1 936.4 319.1 936.8 318.9 937.6 318.4 938.2 317.5 938.4 316.9 938.1 315.4 937 314.4 935.9 314.4ZM865 339.4L863.2 342 860.4 342 836.6 341.8 833.8 341.7 832.3 339.2 820.7 318.8 819.3 316.3 820.6 313.8 832.6 293.2 834 290.8 837.2 290.6 860.7 291 863.9 290.8 865.3 293.3 876.9 313.8 878.4 316.3 876.6 319 865 339.4Z" fill="rgba(170, 183, 235, 0.3)"></path><path d="M240.7 107.4L281.1 141.6 282.7 156.1 256 174.9 242.3 168.8 224.5 118.8C224.1 118.3 224.1 118.3 223.7 117.8 223 116.7 221.7 116.1 219.8 116.6 218.2 117.7 217.5 119 218.1 120.9L233.9 164.6 213.1 155 205.9 135.8C205.9 135.8 205.5 135.3 205.5 135.3 204.8 134.2 203.5 133.5 201.6 134.1 200.1 134.3 199.3 136.5 199.9 138.4L204.1 151.1 188.8 143.8C187.6 143.2 185.6 143.7 184.4 145.4S184.7 149.1 186.3 150.3L201.2 157 188.9 161.8C187 162.3 186.1 164.5 186.7 166.4 187.4 167.5 189.1 168.7 191 168.1L210.2 160.9 231.4 171 187.7 186.8C185.8 187.4 185 189.6 185.2 191 186.3 192.5 187.9 193.8 189.8 193.2L239.5 174.8 253.5 181.3 256.2 213.1 243.6 221.9 191.4 213.2C189.6 212.9 188 214 187.7 215.8S188.5 219.1 190.3 219.4L236.3 227 216.9 240.6 197.3 237.2C195.5 236.9 193.9 238 193.1 240.1S193.9 243.5 195.7 243.8L209.6 245.8 195.4 255.7C193.9 256.8 193.9 259.1 195 260.7 196.1 262.3 197.9 262.6 199.5 261.5L213.6 251.5 211.3 264.9C210.4 267.1 211.5 268.6 213.9 268.6 215.6 268.9 217.2 267.8 217.5 266L221 246.4 240.3 232.8 231.9 278.6C231.5 280.4 233 282.5 234.8 282.8S238.1 282 238.5 280.2L247.7 227.6 260.2 218.8 289.5 232.7 290.6 247.6 256.4 288C255.2 289.6 255.8 291.5 256.9 293.1 258.5 294.3 260.4 293.7 262 292.6L291.7 256.9 293.7 279.8 280.4 295.4C279.2 297 279.7 299 280.9 300.5 282.1 301.2 284.4 301.2 285.6 299.5L294.3 289.6 295.9 306.4C296.1 307.8 297.7 309 299.5 309.3 301.5 308.7 302.7 307.1 302.5 305.7L300.8 288.9 311.7 297.7C312.9 298.3 315.2 298.3 315.9 297 317.5 295.9 317.3 294.5 316.2 292.9 316.2 292.9 315.8 292.4 315.8 292.4L300.2 279.1 298.3 256.3 333.9 285.9C335.6 287.1 337.4 287.5 338.6 285.8 339.8 284.2 339.5 282.8 338.8 281.7 338.4 281.2 338.4 281.2 338.4 281.2L297.1 246.9 296.1 232 322.8 213.2 335.9 219.7 354.7 269.8C354.9 271.2 357 272.1 358.5 271.9 360.4 271.3 361.2 269.1 360.7 267.2L344.9 223.5 365.7 233.1 372.9 252.3C373.5 254.3 375.1 255.5 376.7 254.4 378.6 253.8 379.5 251.6 379.2 250.2L374.1 237.4 389.4 244.7C391.2 245 393.1 244.4 394.3 242.8 394.5 241.9 394.3 240.4 393.5 239.4 393.2 238.9 393.2 238.9 392.3 238.7L377 231.5 389.9 226.4C391.8 225.8 392.1 224 391.9 222.6 391.5 222 391.5 222 391.2 221.5 390.4 220.5 389.2 219.8 387.8 220L368.6 227.2 347.7 217.6 391.4 201.8C393 200.7 394.2 199.1 393.1 197.5 393.2 196.6 393.2 196.6 392.9 196.1 392.1 195 390.3 194.7 388.9 194.9L338.8 213.7 325.7 207.3 322.6 175.1 334.6 166.6 387.2 175.8C389 176.1 391.1 174.7 391.4 172.9S390.3 169 388.5 168.7L342.5 161.1 361.3 147.8 381.5 150.9C383.3 151.2 384.8 150.1 385.1 148.3 385.5 146.6 384.3 145 382.6 144.7L369.2 142.3 383.3 132.4C384.4 131.7 385.2 129.5 384.1 127.9 383 126.4 380.3 125.9 379.3 126.6L365.1 136.6 367.5 123.2C367.6 122.3 367.8 121.4 367.4 120.9 366.7 119.8 365.8 119.7 364.9 119.5 363.1 119.2 361.6 120.3 361.2 122.1L357.3 142.1 338.4 155.3 346.9 109.5C347.1 108.6 346.7 108.1 346 107 345.6 106.5 345.2 106 344.3 105.8 342.6 105.5 340.5 107 340.2 108.8L330.6 160.8 318.5 169.3 289.6 156 287.7 140.9 322.4 100.1C323 98.9 323.4 97.1 322.6 96 322.3 95.5 322.3 95.5 321.7 95.9 320.6 94.3 318.3 94.4 317.1 96L287.4 131.7 285.1 108.3 298.4 92.7C299.1 91.5 298.9 90 298.1 89 298.1 89 297.8 88.5 297.8 88.5 296.7 86.9 294.3 87 293.1 88.6L284.4 99.5 282.7 82.6C282.9 81.7 282.5 81.2 282.1 80.7 281.4 79.6 280.1 79 279.6 79.3 277.3 79.4 276.1 81 275.8 82.8L277.4 99.6 267.5 91C265.8 89.8 263.5 89.8 262.3 91.5 261.6 92.7 261.7 95 263 95.7L278.5 109 280.5 131.9 244.8 102.2C243.2 101 241.3 101.6 239.7 102.7 239 103.9 239.1 106.2 240.7 107.4ZM263.2 178.4L283.6 164.1 286.7 161.9 290.2 163.4 312.2 173.7 316 175.8 316.3 179.5 318.5 203.7 318.7 207.5 315.6 209.7 295.2 224 292 226.2 288.6 224.7 266.5 214.4 263.1 212.9 262.5 208.6 260.3 184.4 260 180.7 263.2 178.4Z" fill="rgba(170, 183, 235, 0.3)"></path><path d="M1304.3 82.2L1331.9 119.5 1325.5 160.4 1293.2 134.4 1288.6 88.2C1288.6 88.2 1288.4 87.7 1288.4 87.7 1288 86.6 1286.6 86 1285.3 85.9 1283.6 85.9 1282.4 87.6 1283 89.2L1287.2 129.6 1271.5 117 1269.5 99.2C1269.5 99.2 1269.3 98.7 1269.3 98.7 1268.9 97.6 1267.4 97 1266.2 96.9 1264.4 96.9 1263.2 98.6 1263.8 100.2L1264.9 112.3 1253.5 102.9C1252.6 102.1 1250.3 102.4 1249.4 103.3 1248.1 104.4 1248.9 106.5 1249.8 107.4L1261.2 116.8 1249 117.9C1247.3 117.9 1246.1 119.6 1246.7 121.1 1246.8 122.9 1248.5 124.1 1250 123.5L1267.8 121.4 1283 134.2 1242.5 138.4C1240.8 138.4 1239.6 140.1 1240.2 141.7 1240.3 143.4 1241.9 144.6 1243.5 144L1289.8 139.4 1322 165.4 1282.8 180.5 1240.1 161.5C1238.6 160.9 1237.1 161.5 1236.4 162.9 1235.8 164.4 1236.4 165.9 1237.8 166.6L1275.5 183.3 1256.6 190.5 1240.7 183.5C1239.3 182.8 1237.7 183.4 1237.1 184.9 1236.4 186.3 1237 187.9 1238.5 188.5L1249.3 193.4 1234.7 199C1232.9 199.1 1232.5 201 1233.1 202.6 1233.7 204.2 1235.1 204.8 1236.7 204.2L1250.3 199 1245.5 209.8C1244.8 211.3 1245.4 212.9 1246.9 213.5S1249.9 213.5 1250.6 212.1L1257.6 196.2 1276.4 188.9 1259.7 226.6C1259.1 228 1259.7 229.6 1261.1 230.2 1262.6 230.9 1264.2 230.3 1264.8 228.8L1283.7 186.1 1322.4 171.2 1316 212.1 1279.4 238.8C1278.1 239.9 1278.1 241.7 1278.8 243.2 1279.9 244.6 1281.6 244.5 1283.2 243.9L1316 219.9 1312.8 239.7 1298.2 250.1C1296.8 251.3 1296.9 253 1297.5 254.6 1298.7 256 1300.4 255.9 1301.5 255.5L1311.2 248.1 1309.1 262.8C1309 264 1309.8 266.1 1311.5 266 1313.3 265.9 1314.9 265.3 1314.8 263.6L1317 248.9 1324.3 258.7C1325.4 260.1 1327.2 260 1328.3 259.6 1329.1 258.6 1329.7 257.2 1329.3 256.2 1329.3 256.2 1329.1 255.6 1329.1 255.6L1318.7 241 1321.9 221.2 1345.9 254C1347 255.3 1348.8 255.3 1349.8 254.9 1350.7 253.9 1351.3 252.5 1350.9 251.4 1350.9 251.4 1350.7 250.9 1350.7 250.9L1323.1 213.5 1329.6 172.6 1361.8 198.6 1366.4 244.9C1366.5 246.6 1368.1 247.8 1369.7 247.2 1371.5 247.1 1372.6 245.5 1372 243.9L1367.9 203.5 1383.5 216.1 1385.6 233.9C1385.7 235.7 1387.3 236.8 1388.9 236.2 1390.6 236.1 1391.8 234.5 1391.2 232.9L1390.1 220.7 1401.5 230.1C1402.5 231 1404.7 230.7 1405.6 229.8 1406.4 228.8 1406.6 227.6 1406.2 226.6 1406 226 1405.8 225.5 1405 225.2L1393.6 215.8 1405.8 214.7C1407.6 214.6 1408.7 213 1408.1 211.4 1408.1 211.4 1407.9 210.9 1407.9 210.9 1407.5 209.8 1406.1 209.2 1404.8 209.1L1387 211.1 1371.4 198.6 1411.8 194.4C1413.5 194.3 1414.7 192.7 1414.1 191.1 1414.1 191.1 1413.9 190.6 1413.9 190.6 1413.5 189.5 1412 188.9 1410.8 188.8L1364.6 193.4 1332.3 167.4 1371 152.5 1413.7 171.4C1415.2 172.1 1416.7 171.5 1417.4 170 1418 168.6 1417.4 167 1416 166.4L1378.9 149.5 1397.7 142.2 1413.6 149.3C1415 149.9 1416.6 149.3 1417.2 147.9S1417.3 144.9 1415.8 144.2L1405 139.4 1418.6 134.2C1420.1 133.6 1420.8 132.1 1420.2 130.5 1419.6 129 1418.1 128.3 1416.6 128.9L1403 134.2 1407.8 123.3C1408.1 122.6 1408.4 121.9 1408 120.8S1406.9 119.4 1406.2 119.1C1404.7 118.5 1403.2 119.1 1402.5 120.5L1395.4 136.5 1376.6 143.7 1393.3 106.1C1393.7 105.3 1394 104.6 1393.6 103.6 1393.4 103.1 1392.5 102.2 1391.7 101.9 1390.3 101.2 1388.7 101.8 1388.1 103.3L1369.1 146 1330.5 160.9 1336.9 120 1374.3 92.4C1375.1 91.5 1375.8 90 1375.4 89 1375.4 89 1375.2 88.5 1375.2 88.5 1374 87.1 1372.3 87.2 1371.2 87.6L1338.5 111.6 1341.6 91.8 1356.2 81.4C1357.1 80.4 1357.7 79 1357.3 77.9 1357.3 77.9 1357.1 77.4 1357.1 77.4 1356 76.1 1354.2 76.1 1353.2 76.5L1343.4 83.9 1345.6 69.3C1345.4 68.7 1345.7 68 1345.5 67.5 1345.1 66.5 1344.1 65.6 1342.9 65.5 1341.1 65.6 1339.6 66.2 1339.6 67.9L1337.5 82.6 1330.1 72.8C1329 71.4 1327.2 71.5 1326.2 71.9 1324.8 73.1 1324.9 74.8 1325.3 75.9L1335.7 90.5 1332.6 110.3 1308.5 77.5C1307.4 76.2 1305.6 76.2 1304.6 76.6 1303.6 78.8 1303.2 80.8 1304.3 82.2Z" fill="rgba(170, 183, 235, 0.3)"></path><path d="M379.6 391.7L369.8 393.6 371.7 387.2C372 386.5 371.6 385.6 370.7 385.1 369.8 385 368.9 385.4 368.6 386.1L365.9 394.5 356.7 396.3 362.5 379.2C362.8 378 362.4 377.1 361.4 377.1 360.6 376.5 359.6 376.9 359.3 378.1L353 397 344.8 398.7 331.8 384.2 334 377 354.9 373C355.1 372.8 355.4 372.6 355.6 372.4 355.8 372.2 356.1 371.5 356.1 371.1 356 369.9 355.1 369.4 354.2 369.8L335.1 373.5 338.1 364.8 347.8 362.7C348 362.9 348.2 362.7 348.5 362.5 349 362 349.2 361.4 349 360.7 348.8 360 348 359.5 347.1 359.4L339.3 361.2 342.8 350.4C343.1 349.7 342.7 348.8 341.8 348.3 340.9 348.2 340 348.6 339.7 349.3L336.4 359.5 331.9 354.5C331.3 353.8 330.2 353.9 329.7 354.3 329 355 328.7 356.1 329.3 356.8L335.1 363.3 332.1 371.9 320.1 358.5C319.5 357.8 318.6 357.8 317.9 358.4 317.2 359.1 317.1 360 317.8 360.7L330.9 375.5 328.7 383.1 309.4 386.9 304.5 381.4 310.9 362.1C311.4 361.2 310.8 360 309.9 360 309 359.5 308.3 360.1 307.8 361L302 378.6 295.8 371.6 298.8 363C299.1 362.3 298.5 361.1 297.8 360.9S296 361.2 295.5 362.1L293.3 368.8 285.8 360.4C285.2 359.7 284 359.8 283.3 360.5 282.8 360.9 282.5 362 283.2 362.7L290.6 371.1 283.5 372.7C282.8 372.9 282.1 373.6 282.3 374.7 282.4 375.4 283.5 376.1 284.2 375.9L293.2 374 299.3 380.9 281.2 384.6C280.3 385 279.6 385.6 279.7 386.8 279.9 387.5 281 388.2 281.7 388L301.9 383.8 306.8 389.3 300.7 408 292.9 409.3 279.7 394.5C279.1 393.8 278.2 393.7 277.5 394.4 276.8 395 276.5 396.1 277.1 396.8L289 410.2 280.1 412.2 274.3 405.7C273.7 405 272.8 405 272.1 405.6 271.3 406.2 271.3 407.1 271.9 407.9L276.4 412.9 265.9 415C265.2 415.2 264.4 416.3 264.6 417 265 417.9 265.6 418.6 266.6 418.2L277.6 416.1 275.1 423.5C275 424.4 275.4 425.3 276.1 425.6 276.8 425.8 277.5 425.6 277.9 425.2 277.9 425.2 278.2 425 278.2 424.6L281.5 415.2 290.4 413.3 284.6 431.7C284.1 432.6 284.5 433.5 285.6 433.8 286.1 433.8 286.5 433.9 287 433.5 287.2 433.2 287.5 433 287.7 432.8L294.1 412.6 301.4 411.2 314.4 425.8 311.7 433.8 292.2 437.8C291 438 290.5 438.9 290.9 439.8 290.9 440.7 291.7 441.2 292.9 441L310.6 437.3 307.8 446.2 299.1 448C298.4 448.2 297.9 449 297.8 449.9 298.2 450.9 298.8 451.6 299.8 451.2L306.4 450 303.4 459.6C302.9 460.4 303.5 461.2 304.4 461.7 304.8 461.7 305.5 461.5 306 461.1 306 461.1 306.2 460.9 306.5 460.7L309.8 450.4 315.1 456.4C315.5 456.9 316.7 457.2 317.4 456.5 318.1 455.9 317.9 454.7 317.5 454.3L310.9 446.9 313.7 438 326.7 452.5C327.3 453.3 328.5 453.1 329.2 452.5S329.9 450.9 329.3 450.2L315 434.2 317.5 426.8 336.8 423 342.3 429.2 335.7 448.8C335.7 449.7 336.1 450.6 337 451.1 337.4 451.1 338.1 450.9 338.6 450.5 338.8 450.3 339.1 450.1 339.1 449.6L344.9 432.1 351 439 348.2 447.9C348 448.6 348.4 449.5 349.3 450 350.2 450.1 351.1 449.7 351.4 449L353.6 441.9 360.4 449.5C360.8 450 362.2 450.1 362.7 449.7 363.4 449 363.4 447.7 363 447.2L356.2 439.5 363.3 438.4C363.5 438.1 363.8 437.9 364 437.7 364.5 437.3 364.8 436.6 364.8 436.2 364.4 435.2 363.5 434.7 362.6 434.7L353.7 436.7 347.5 429.7 365.6 426C366.8 425.9 367.3 425 367.1 424.3 366.9 423.2 366 422.7 365.1 422.6L344.9 426.9 339.4 420.6 345.5 402 353.1 400.4 367.3 416.4C368 417.1 368.9 417.1 369.6 416.5 370.3 415.9 370.3 415 369.7 414.3L356.7 399.7 365.9 397.9 372.5 405.3C372.9 405.8 374.3 405.9 375 405.3 375.7 404.6 375.5 403.5 375.1 403L369.8 397 380.4 394.9C380.6 394.7 380.6 394.7 380.8 394.5 381.3 394.1 381.6 393.4 381.6 393 381.2 392 380.3 391.5 379.6 391.7ZM336.9 417.8L336.1 419.8 334.2 420.1 318.6 423.3 316.8 423.6 315.5 422.2 305.1 410.5 303.8 409 304.4 407.3 309.3 392.1 309.9 390.4 312 389.8 327.3 386.8 329.4 386.3 330.7 387.7 341.1 399.4 342.4 400.9 341.6 402.9 336.9 417.8Z" fill="rgba(170, 183, 235, 0.3)"></path><path d="M1277.4 419.1L1242.6 459.2 1195.4 462.3 1216.3 419.9 1266.7 403.1C1266.7 403.1 1267.3 402.8 1267.3 402.8 1268.3 402.1 1268.7 400.3 1268.5 398.9 1268 396.9 1265.8 396 1264.2 397.1L1220.2 411.9 1230.3 391.3 1249.7 384.5C1249.7 384.5 1250.2 384.2 1250.2 384.2 1251.3 383.4 1251.6 381.7 1251.4 380.3 1250.9 378.3 1248.8 377.4 1247.2 378.5L1233.9 382.8 1241.5 367.7C1242.2 366.4 1241.3 363.9 1240.1 363.2 1238.5 362 1236.3 363.4 1235.6 364.6L1228 379.7 1223.7 366.4C1223.2 364.5 1221.1 363.6 1219.5 364.7 1217.5 365.2 1216.6 367.3 1217.7 368.9L1224.5 388.3 1214 408.3 1199.3 364.3C1198.7 362.4 1196.6 361.5 1195 362.5 1193 363.1 1192.2 365.2 1193.2 366.8L1209.9 417.2 1189 459.6 1162.4 419.7 1172.8 367.3C1173.2 365.6 1172.1 364 1170.3 363.6 1168.5 363.3 1166.9 364.3 1166.6 366.1L1157.4 412.3 1144.6 393.1 1148.5 373.6C1148.8 371.8 1147.8 370.2 1146 369.9 1144.2 369.5 1142.6 370.6 1142.3 372.3L1139.6 385.7 1129.7 370.8C1129.1 368.8 1126.8 368.8 1125.2 369.9 1123.6 370.9 1123.3 372.7 1124.4 374.3L1133.6 388.1 1120.3 385.5C1118.5 385.1 1116.9 386.2 1116.5 388S1117.3 391.4 1119 391.7L1138.6 395.6 1151.4 414.8 1105.2 405.6C1103.4 405.2 1101.8 406.3 1101.5 408 1101.1 409.8 1102.2 411.4 1104 411.8L1156.3 422.2 1182.6 461.6 1135.4 464.6 1096.5 430.6C1094.9 429.4 1093 429.9 1091.4 431 1090.1 432.6 1090.7 434.5 1091.7 436.1L1126.7 466.6 1103.8 468 1088.6 454.4C1087 453.1 1085 453.7 1083.4 454.7 1082.2 456.3 1082.7 458.3 1083.4 459.4L1094.1 468.4 1077.2 469.7C1075.8 469.8 1073.7 471.3 1074.2 473.2 1074.7 475.2 1075.8 476.8 1077.7 476.2L1094.6 475 1085.6 485.6C1084.3 487.2 1084.8 489.2 1085.6 490.2 1086.8 491 1088.6 491.3 1089.6 490.6 1089.6 490.6 1090.2 490.2 1090.2 490.2L1103.8 475 1126.7 473.5 1096.2 508.5C1095 510.1 1095.5 512.1 1096.2 513.1 1097.5 513.8 1099.2 514.2 1100.3 513.5 1100.3 513.5 1100.8 513.1 1100.8 513.1L1135.6 473 1182.8 469.9 1161.9 512.4 1111.5 529.1C1109.5 529.6 1108.7 531.8 1109.7 533.4 1110.3 535.3 1112.4 536.2 1114 535.1L1158 520.4 1147.9 541 1128.6 547.7C1126.6 548.3 1125.7 550.4 1126.8 552 1127.3 553.9 1129.4 554.8 1131 553.8L1144.4 549.5 1136.7 564.6C1136 565.8 1136.9 568.3 1138.2 569 1139.4 569.7 1140.8 569.5 1141.9 568.8 1142.4 568.5 1142.9 568.1 1143.1 567.2L1150.7 552.1 1155 565.5C1155.5 567.4 1157.7 568.3 1159.3 567.2 1159.3 567.2 1159.8 566.9 1159.8 566.9 1160.9 566.2 1161.2 564.4 1161 563L1154.3 543.6 1164.4 523 1179.2 567C1179.7 569 1181.8 569.9 1183.4 568.8 1183.4 568.8 1183.9 568.5 1183.9 568.5 1185 567.7 1185.4 566 1185.2 564.5L1168.5 514.1 1189.4 471.7 1215.7 511.1 1205.2 563.5C1204.9 565.2 1206 566.8 1207.7 567.2 1209.5 567.5 1211.1 566.5 1211.5 564.7L1221 519.1 1233.8 538.2 1229.9 557.8C1229.6 559.5 1230.6 561.1 1232.4 561.5S1235.8 560.8 1236.1 559L1238.8 545.7 1248 559.5C1249.1 561.1 1250.9 561.5 1252.5 560.4 1254.1 559.4 1254.4 557.6 1253.3 556L1244.1 542.1 1257.4 544.8C1258.3 545 1259.2 545.1 1260.3 544.4S1261.5 542.8 1261.7 542C1262 540.2 1261 538.6 1259.2 538.2L1239.7 534.3 1226.9 515.2 1273 524.4C1273.9 524.5 1274.8 524.7 1275.9 524 1276.4 523.7 1277.1 522.4 1277.3 521.5 1277.6 519.8 1276.6 518.2 1274.8 517.8L1222.4 507.4 1196.1 468 1243.3 464.9 1283.5 499.7C1284.7 500.4 1286.5 500.8 1287.6 500 1287.6 500 1288.1 499.7 1288.1 499.7 1289.3 498.1 1288.8 496.1 1288.1 495.1L1253.1 464.6 1276 463.1 1291.3 476.8C1292.5 477.5 1294.3 477.9 1295.4 477.1 1295.4 477.1 1295.9 476.8 1295.9 476.8 1297.1 475.2 1296.6 473.2 1295.9 472.2L1285.2 463.1 1302.1 461.9C1302.6 461.5 1303.5 461.7 1304 461.3 1305.1 460.6 1305.8 459.4 1305.6 458 1305.1 456 1304 454.4 1302.1 454.9L1285.2 456.2 1294.3 445.5C1295.5 443.9 1295 442 1294.3 440.9 1292.7 439.7 1290.7 440.2 1289.7 440.9L1276 456.2 1253.1 457.6 1283.6 422.7C1284.8 421.1 1284.3 419.1 1283.6 418 1280.9 417.5 1278.6 417.5 1277.4 419.1Z" fill="rgba(170, 183, 235, 0.3)"></path><path d="M49.1 382.5L61.6 384.3 56.6 391.1C56 391.8 56.1 393.1 56.9 394 58 394.5 59.2 394.4 59.8 393.7L66.5 384.9 78.1 386.6 64.2 404.4C63.4 405.6 63.5 406.9 64.6 407.3 65.4 408.3 66.7 408.2 67.5 407L82.7 387.3 93.2 388.6 102.5 411.1 97 418.6 70.7 414.7C70.3 414.9 69.9 415 69.6 415.2 69.2 415.4 68.6 416 68.4 416.6 68.1 418 68.9 418.9 70.2 418.8L94.2 422.3 87.1 431.3 74.8 429.9C74.6 429.6 74.3 429.7 73.9 429.9 73.2 430.2 72.6 430.8 72.5 431.7 72.5 432.6 73.3 433.6 74.3 434L84.3 435.1 75.6 446.5C75 447.2 75.1 448.4 75.9 449.4 77 449.8 78.2 449.7 78.8 449L86.9 438.3 90.1 446.1C90.6 447.2 92 447.5 92.8 447.2 93.9 446.7 94.7 445.5 94.2 444.4L90.1 434.4 97.2 425.4 105.7 446.1C106.2 447.2 107.2 447.7 108.4 447.2 109.5 446.8 109.9 445.7 109.4 444.6L100 421.7 105.7 413.7 130.1 417 133.6 425.5 118.1 445.8C117.2 446.6 117.4 448.2 118.5 448.7 119.3 449.6 120.4 449.2 121.4 448.3L135.4 430 139.8 440.7 132.7 449.7C132.2 450.4 132.4 452 133.1 452.6S135.4 452.9 136.3 452.1L141.7 445.1 147 458.1C147.5 459.2 148.9 459.4 150 459 150.8 458.7 151.6 457.5 151.1 456.4L145.7 443.4 154.8 444.4C155.7 444.5 156.8 444 157.1 442.6 157.2 441.7 156.2 440.4 155.3 440.3L143.9 439 139.5 428.3 162.4 431.4C163.7 431.3 164.8 430.8 165 429.4 165.1 428.5 164.1 427.2 163.2 427.1L137.6 423.8 134.1 415.3 149 395.8 158.7 397.4 168.2 420.3C168.7 421.4 169.7 421.8 170.8 421.4 171.9 420.9 172.7 419.7 172.3 418.6L163.7 397.9 175.1 399.3 179.2 409.2C179.7 410.4 180.7 410.8 181.8 410.3 182.9 409.9 183.4 408.8 182.9 407.7L179.7 400 193 401.8C193.9 401.9 195.2 400.9 195.3 400 195.2 398.7 194.8 397.6 193.5 397.7L179.7 395.6 185.6 388C186 387 185.9 385.7 185.3 385.1 184.6 384.5 183.7 384.5 182.9 384.8 182.9 384.8 182.6 384.9 182.4 385.4L174.7 395.1 163.3 393.8 177.8 374.3C178.7 373.5 178.6 372.3 177.4 371.5 176.9 371.2 176.4 371 175.7 371.3 175.3 371.5 174.9 371.6 174.5 371.8L158.7 393.1 149.5 391.7 140.1 369.1 146.6 360.8 171.3 364C172.8 364.3 173.7 363.5 173.6 362.2 174.1 361.2 173.2 360.2 171.8 359.9L149.4 357.1 156.4 347.7 167.4 349.2C168.3 349.3 169.2 348.4 169.7 347.4 169.6 346.1 169.1 345 167.9 345.1L159.5 343.8 167 333.8C168 332.9 167.5 331.8 166.7 330.9 166.2 330.7 165.3 330.6 164.6 330.9 164.6 330.9 164.2 331 163.8 331.2L155.7 341.9 151.9 332.7C151.6 331.9 150.4 331.1 149.3 331.6 148.2 332.1 147.9 333.5 148.2 334.2L152.9 345.7 146 355 136.7 332.5C136.2 331.4 134.8 331.1 133.7 331.6S132.1 333.1 132.6 334.2L142.8 358.9 136.9 366.6 112.6 363.2 108.6 353.6 124.4 333.2C124.8 332.2 124.7 330.9 123.9 330 123.4 329.7 122.5 329.7 121.8 330 121.4 330.1 121 330.3 120.8 330.8L106.8 349.2 102.3 338.5 109.3 329.1C109.9 328.4 109.8 327.2 108.9 326.2 107.9 325.8 106.6 325.9 106.1 326.5L100.5 334 95.6 322.2C95.3 321.5 93.7 320.8 93 321.1 91.9 321.6 91.2 323.1 91.5 323.9L96.4 335.7 87.6 334.2C87.2 334.3 86.8 334.5 86.5 334.6 85.7 334.9 85.1 335.6 84.9 336.1 85 337.4 85.8 338.4 86.9 338.8L98.3 340.1 102.7 350.9 79.8 347.8C78.4 347.5 77.4 348.3 77.3 349.2 77.1 350.6 77.9 351.6 78.9 352L104.5 355.3 108.5 364.9 93.7 384.5 84.1 383.2 73.8 358.5C73.4 357.4 72.3 356.9 71.2 357.4 70.1 357.8 69.7 358.9 70.1 360L79.4 382.6 67.9 380.8 63.2 369.4C62.9 368.6 61.3 368 60.2 368.4 59.1 368.9 58.8 370.3 59.1 371.1L62.9 380.3 49.6 378.4C49.2 378.6 49.2 378.6 48.9 378.7 48.1 379.1 47.5 379.7 47.3 380.3 47.4 381.5 48.2 382.5 49.1 382.5ZM110.3 369.3L112.1 367.3 114.4 367.7 134.1 370.3 136.4 370.7 137.3 372.9 144.8 391 145.8 393.2 144.4 395.1 132.3 410.9 130.9 412.8 128.2 412.6 108.9 409.8 106.2 409.6 105.3 407.4 97.8 389.2 96.9 387 98.6 385 110.3 369.3Z" fill="rgba(170, 183, 235, 0.3)"></path><path d="M1362.7 399.9L1360.6 373.5 1365.2 367.9 1381.2 370.7 1383.9 377.7 1372.4 401.7C1372.4 402 1372.4 402 1372.3 402.3 1372.2 402.9 1372.4 403.6 1373.3 404.1 1374.2 404.3 1374.9 404.1 1375.4 403.2L1385.4 382.2 1389.3 393 1385 402.3C1385 402.3 1384.9 402.6 1384.9 402.6 1384.8 403.3 1385 403.9 1385.9 404.4 1386.5 404.9 1387.6 404.4 1388 403.5L1391.1 397.5 1393.9 405.5C1394.1 406.2 1394.9 406.7 1395.9 406.6S1397.2 405.1 1397 404.1L1394.2 396.5 1400.2 399.2C1401.1 399.7 1402.1 399.2 1402.6 398.3 1402.7 397.7 1402.6 396.7 1401.7 396.2L1392.4 391.9 1388.5 380.8 1409.5 390.8C1410.4 391.3 1411.5 390.8 1411.9 390.2 1412.1 389.3 1411.9 388.3 1411 387.8L1387 376.7 1384.4 369.4 1394.7 357.2 1402.3 358.6 1417.6 380.2C1418.1 381 1419 381.1 1419.8 380.6S1420.7 379.1 1420.2 378.4L1406.7 359.4 1418.4 361.5 1424 369.7C1424.6 370.4 1425.5 370.6 1426.6 370.1S1427.5 368.7 1427 367.9L1422.8 362.3 1431.3 363.8C1432.2 364 1433 363.1 1433.2 362.2 1433.3 361.3 1432.8 360.5 1431.9 360.3L1423.4 358.8 1429 354.9C1430 354.5 1430.2 353.5 1429.4 352.7 1428.8 352 1427.9 351.8 1427.1 352.3L1419 358 1407.3 355.9 1426.6 342.8C1427.3 342.3 1427.6 341 1427 340.3S1425.6 339.4 1424.8 339.9L1402.9 355.1 1395.4 353.8 1390 338.5 1394.9 332.9 1421.3 330.8C1422.3 330.7 1422.8 329.8 1422.9 328.8 1422.8 327.8 1421.9 327.3 1420.9 327.2L1397.8 329.2 1405.2 320.4 1415.5 319.7C1416.5 319.5 1416.9 318.6 1417.1 317.7 1416.9 317 1416.1 316.2 1415.1 316.4L1408.5 316.8 1413.9 310.3C1414.3 309.7 1414.2 308.7 1413.7 308 1412.8 307.5 1411.8 307.6 1411.3 308.2L1406 314.7 1405.2 307.8C1405 307.1 1404.2 306.3 1403.5 306.5 1402.6 306.3 1402.2 306.9 1402 307.8 1402 307.8 1401.9 308.1 1401.9 308.1L1402.7 318.4 1395.3 327.1 1393.2 304C1393.1 303 1392.6 302.2 1391.6 302.4 1390.6 302.5 1390.2 303.1 1390 303.7 1390 304 1390 304 1390 304L1392.3 330.8 1387.4 336.4 1371.4 333.5 1369 326.6 1380.2 302.3C1380.7 301.7 1380.2 300.7 1379.6 300.2 1378.7 299.7 1377.7 300.2 1377.2 301.1L1367.2 322.1 1363.3 311.3 1367.6 302C1368.1 301.1 1367.9 300.1 1367 299.9 1366.1 299.4 1365 299.9 1364.6 300.5L1361.9 306.8 1359.1 298.8C1358.5 298.1 1357.7 297.6 1356.7 297.7 1356.3 298 1355.9 298.6 1355.7 299.2 1355.7 299.5 1355.7 299.5 1355.9 299.9L1358.7 307.9 1352.4 305.1C1351.5 304.6 1350.8 305.1 1350.3 305.7 1350.3 306 1350.3 306 1350.2 306.3 1350.1 307 1350.3 307.6 1350.9 308.1L1360.2 312.3 1364.1 323.1 1343.2 313.2C1342.2 313 1341.2 313.2 1341 314.1 1340.7 314.4 1340.7 314.4 1340.6 314.7 1340.5 315.3 1341 316 1341.6 316.5L1365.9 327.7 1368.2 334.6 1357.9 347 1350.6 345.7 1335.4 323.8C1334.9 323.1 1333.6 322.8 1332.9 323.4S1331.9 325.1 1332.4 325.9L1345.9 344.9 1334.6 342.9 1328.6 334.6C1328.1 333.9 1327.1 333.7 1326.4 334.2 1325.6 334.7 1325.5 335.7 1326 336.4L1329.8 342 1321.3 340.5C1320.7 340.4 1319.7 340.8 1319.5 341.8 1319.3 342.7 1320.1 343.8 1320.7 343.9L1329.2 345.5 1323.6 349.3C1323.3 349.6 1322.9 349.9 1322.8 350.2 1322.7 350.8 1323 351.2 1323.3 351.5 1323.8 352.3 1324.7 352.5 1325.5 351.9L1333.9 346.3 1345.3 348.4 1326 361.5C1325.6 361.7 1325.6 362 1325.5 362.7 1325.4 363 1325.4 363.3 1325.6 363.7 1326.1 364.4 1327.4 364.6 1328.1 364.1L1350 349.2 1357.3 350.5 1362.7 365.5 1358 371.5 1331.3 373.5C1330.7 373.7 1329.9 374.2 1329.8 374.8 1329.7 375.1 1329.7 375.1 1330.1 375.2 1329.9 376.1 1330.7 376.9 1331.7 376.8L1354.8 374.8 1347.4 383.8 1337.1 384.6C1336.5 384.8 1336 385.4 1335.9 386 1335.9 386 1335.9 386.3 1335.9 386.3 1335.7 387.3 1336.5 388.1 1337.5 387.9L1344.5 387.2 1339.1 393.7C1338.7 394 1338.6 394.3 1338.6 394.6 1338.5 395.2 1338.7 395.9 1339 396 1339.8 396.8 1340.8 396.6 1341.6 396.1L1347 389.6 1347.4 396.2C1347.6 397.2 1348.4 398 1349.4 397.9 1350.1 397.7 1350.9 396.8 1350.7 396.1L1349.9 385.9 1357.3 377.2 1359.4 400.3C1359.5 401.3 1360.4 401.8 1361.3 402 1362 401.8 1362.8 400.9 1362.7 399.9ZM1380 366.9L1367.7 364.7 1365.8 364.4 1365.1 362.7 1361 351.2 1360.4 349.1 1361.7 347.7 1369.5 338.4 1370.7 337 1372.6 337.3 1384.9 339.5 1386.8 339.9 1387.5 341.6 1391.6 353.1 1392.2 354.8 1391 356.6 1383.1 365.9 1381.9 367.3 1380 366.9Z" fill="rgba(170, 183, 235, 0.3)"></path><path d="M1012.7 73.8L1014.7 106.8 1008.8 113.8 988.8 109.9 985.7 101.1 1000.5 71.4C1000.6 71 1000.6 71 1000.7 70.6 1000.8 69.8 1000.6 69 999.5 68.3 998.3 68.1 997.5 68.4 996.8 69.5L983.9 95.4 979.3 81.9 984.8 70.3C984.8 70.3 984.9 69.9 984.9 69.9 985.1 69.2 984.8 68.3 983.7 67.7 983 67.1 981.7 67.7 981.1 68.8L977.2 76.2 973.8 66.1C973.6 65.3 972.5 64.6 971.3 64.8S969.7 66.5 969.8 67.8L973.2 77.4 965.8 73.9C964.7 73.3 963.3 73.8 962.7 74.9 962.6 75.7 962.7 77 963.8 77.6L975.4 83.1 979.9 97.1 953.9 84.2C952.8 83.6 951.5 84.1 951 84.8 950.7 86 950.9 87.3 952 87.9L981.7 102.3 984.8 111.5 971.7 126.4 962.2 124.6 943.6 97.2C943 96.3 941.8 96.1 940.9 96.7S939.7 98.5 940.3 99.4L956.8 123.5 942.2 120.6 935.3 110.3C934.7 109.3 933.5 109.1 932.2 109.6S931 111.4 931.6 112.4L936.7 119.5 926.1 117.4C925 117.2 924 118.2 923.7 119.4 923.5 120.6 924.1 121.5 925.3 121.7L935.9 123.8 928.8 128.6C927.5 129.1 927.3 130.3 928.3 131.3 928.9 132.2 930.1 132.5 931 131.8L941.4 124.9 955.9 127.8 931.5 143.8C930.6 144.4 930.3 146 930.9 146.9S932.7 148.1 933.6 147.4L961.4 128.9 970.8 130.8 977.2 150 970.9 156.9 937.9 158.9C936.6 159.1 936 160.2 935.8 161.3 935.9 162.6 937 163.2 938.2 163.4L967.2 161.4 957.7 172.2 944.9 172.9C943.7 173.1 943 174.2 942.8 175.4 943 176.2 944 177.2 945.3 177.1L953.5 176.7 946.7 184.7C946.1 185.4 946.3 186.7 946.9 187.6 948 188.2 949.2 188.1 949.8 187.4L956.7 179.3 957.4 188C957.6 188.9 958.7 189.9 959.5 189.7 960.7 189.9 961.2 189.2 961.5 188 961.5 188 961.6 187.6 961.6 187.6L960.8 174.9 970.3 164.1 972.3 193C972.5 194.3 973.1 195.2 974.4 195.1 975.6 194.9 976.2 194.2 976.3 193.4 976.4 193 976.4 193 976.4 193L974.1 159.5 980.3 152.6 1000.3 156.6 1003.1 165.3 988.6 195.4C988 196.2 988.6 197.5 989.3 198 990.4 198.7 991.7 198.1 992.3 197L1005.2 171 1009.9 184.6 1004.3 196.1C1003.7 197.2 1003.9 198.5 1005 198.7 1006.1 199.3 1007.5 198.8 1008 198.1L1011.6 190.2 1014.9 200.3C1015.6 201.2 1016.7 201.8 1017.9 201.7 1018.4 201.4 1018.9 200.7 1019.1 199.9 1019.2 199.5 1019.2 199.5 1018.8 199L1015.5 189 1023.4 192.6C1024.5 193.2 1025.4 192.6 1026 191.9 1026 191.5 1026 191.5 1026.1 191.1 1026.3 190.3 1026 189.4 1025.3 188.9L1013.8 183.3 1009.1 169.8 1035.1 182.7C1036.3 182.9 1037.6 182.7 1037.8 181.6 1038.3 181.3 1038.3 181.3 1038.3 180.9 1038.5 180.1 1037.9 179.1 1037.2 178.6L1007 164 1004.3 155.3 1017.5 140 1026.5 141.8 1045.1 169.6C1045.7 170.5 1047.3 170.8 1048.2 170.2S1049.5 168 1048.8 167L1032.4 143 1046.5 145.8 1053.8 156.2C1054.5 157.1 1055.6 157.4 1056.6 156.7 1057.5 156.1 1057.8 154.9 1057.1 154L1052.4 146.9 1063 149C1063.8 149.2 1065.1 148.7 1065.4 147.5 1065.6 146.3 1064.6 144.9 1063.9 144.7L1053.3 142.6 1060.3 137.9C1060.8 137.6 1061.3 137.3 1061.3 136.9 1061.5 136.1 1061.2 135.6 1060.9 135.2 1060.2 134.2 1059.1 134 1058.1 134.6L1047.4 141.5 1033.3 138.7 1057.6 122.7C1058.1 122.4 1058.2 122 1058.3 121.2 1058.4 120.8 1058.5 120.4 1058.2 120 1057.5 119 1056 118.7 1055 119.3L1027.4 137.5 1018.4 135.7 1011.9 116.9 1017.8 109.5 1051.3 107.6C1052.1 107.3 1053.1 106.7 1053.2 105.9 1053.3 105.5 1053.3 105.5 1052.9 105.4 1053.1 104.3 1052.1 103.3 1050.9 103.4L1021.9 105.4 1031.5 94.3 1044.3 93.5C1045.1 93.3 1045.7 92.6 1045.8 91.8 1045.8 91.8 1045.9 91.4 1045.9 91.4 1046.1 90.2 1045.1 89.2 1043.9 89.4L1035.1 90.1 1042 82.1C1042.5 81.8 1042.6 81.4 1042.7 81 1042.8 80.2 1042.6 79.3 1042.2 79.3 1041.2 78.2 1039.9 78.4 1039 79L1032.1 87 1031.7 78.8C1031.5 77.6 1030.5 76.5 1029.2 76.7 1028.4 76.9 1027.4 78 1027.6 78.8L1028.3 91.6 1018.8 102.4 1016.8 73.4C1016.7 72.2 1015.6 71.5 1014.4 71.3 1013.5 71.5 1012.5 72.6 1012.7 73.8ZM990.3 114.6L1005.6 117.7 1008 118.1 1008.8 120.3 1013.6 134.8 1014.4 137.4 1012.8 139.1 1002.8 150.6 1001.2 152.3 998.8 151.8 983.5 148.8 981.2 148.3 980.4 146.1 975.5 131.7 974.7 129.5 976.4 127.4 986.4 115.9 988 114.2 990.3 114.6Z" fill="rgba(170, 183, 235, 0.3)"></path></g><defs><mask id="SvgjsMask1038"><rect width="1440" height="560" fill="#ffffff"></rect></mask><filter id="SvgjsFilter1039"><feGaussianBlur stdDeviation="1"></feGaussianBlur></filter></defs></svg>